<?xml version="1.0" encoding="UTF-8"?>
<svg version="1.1" xmlns="http://www.w3.org/2000/svg" width="512" height="512">
<path d="M0 0 C1.16939117 0.00304138 2.33878235 0.00608276 3.54360962 0.00921631 C32.28303611 0.11920076 59.53540788 3.25237461 87.4375 10.4375 C88.44538574 10.69370117 89.45327148 10.94990234 90.49169922 11.21386719 C134.39050991 22.58632034 134.39050991 22.58632034 147.4375 33.4375 C148.00024414 35.6003418 148.00024414 35.6003418 148.125 37.75 C148.26585192 40.15046148 148.26585192 40.15046148 149.4375 42.4375 C153.84583369 45.6727777 158.51543888 48.07928012 163.4375 50.4375 C164.4275 49.7775 165.4175 49.1175 166.4375 48.4375 C170.90748104 47.78801557 173.60825144 48.23690655 177.26953125 50.74609375 C178.61079179 51.77042916 179.9371697 52.81447208 181.25 53.875 C181.95503662 54.42631592 182.66007324 54.97763184 183.38647461 55.5456543 C188.95941006 59.94534018 194.32102947 64.51194255 199.4375 69.4375 C199.99791992 69.96682129 200.55833984 70.49614258 201.13574219 71.04150391 C229.10084576 97.54288954 246.54368965 131.09980474 248.62109375 169.86328125 C249.03066194 189.594831 244.83622813 208.38650014 231.0703125 223.015625 C211.13916333 241.34991652 182.58544042 241.98643428 157.0625 241.75 C154.95076564 241.74065342 152.83903059 241.73145902 150.72729492 241.72241211 C111.47478864 241.46279137 111.47478864 241.46279137 97.4375 238.4375 C98.1019414 241.43800914 98.76850339 244.43800552 99.4375 247.4375 C99.60942871 248.2099707 99.78135742 248.98244141 99.95849609 249.77832031 C104.5516796 270.22206878 110.84797222 289.87842696 117.81680298 309.61608887 C152.22441266 407.1136317 152.22441266 407.1136317 132.4375 452.4375 C119.59874478 478.33959508 94.38404119 493.28459437 67.92626953 502.29248047 C54.37205639 506.70143191 40.53008539 509.40912612 26.4375 511.4375 C25.74060059 511.5413501 25.04370117 511.6452002 24.32568359 511.75219727 C-17.56868326 517.2474324 -69.83089467 509.62303864 -104.44384766 484.04736328 C-109.98514865 479.72127265 -115.53365929 475.25798987 -119.5625 469.4375 C-119.88920315 465.6477435 -119.76440901 463.04322704 -118.5625 459.4375 C-120.50139083 454.78798876 -122.96310762 448.91154568 -127.484375 446.34765625 C-129.16234302 445.97118907 -130.86281555 445.69898992 -132.5625 445.4375 C-135.39680053 442.48567969 -136.26868269 439.55774004 -137.1875 435.625 C-137.42726563 434.62855469 -137.66703125 433.63210938 -137.9140625 432.60546875 C-146.00727506 393.06573752 -131.97899704 353.72069146 -119.371521 316.80877686 C-105.97786406 280.35656247 -105.97786406 280.35656247 -97.8515625 242.59765625 C-97.5625 240.4375 -97.5625 240.4375 -96.5625 238.4375 C-97.64301636 238.6684436 -97.64301636 238.6684436 -98.74536133 238.90405273 C-116.3015263 242.22845004 -135.08631206 241.66325519 -152.88052368 241.73605347 C-155.05745021 241.74523423 -157.23436266 241.75920656 -159.41122437 241.77835083 C-185.8691002 241.98392853 -212.0684402 239.79126756 -232.3046875 220.85546875 C-245.0398505 207.21694644 -247.9372763 187.96552658 -247.70703125 170.02734375 C-245.98999773 127.3799437 -224.55060012 93.39879427 -194.18994141 64.82373047 C-158.79715777 32.68016354 -111.80234793 14.88882692 -65.5625 5.6875 C-64.64098145 5.5009082 -63.71946289 5.31431641 -62.77001953 5.12207031 C-41.9792508 1.21569211 -21.12113941 -0.11765387 0 0 Z " fill="#AC7035" transform="translate(255.5625,-0.43750000000000006)"/>
<path d="M0 0 C2.45573705 -0.00063073 4.91144127 -0.00511667 7.36717224 -0.01040649 C29.36364738 -0.04675799 51.17955192 0.71583635 73.120224 2.31185913 C74.46841197 2.40816486 75.81661786 2.50422023 77.1648407 2.60003662 C80.48339101 2.83608772 83.8018428 3.07344476 87.120224 3.31185913 C87.26514282 4.17362762 87.41006165 5.03539612 87.55937195 5.92327881 C91.0252257 26.38130255 96.33098966 45.70118905 103.120224 65.31185913 C105.81179497 73.10260487 108.49384943 80.89654092 111.16697693 88.69363403 C112.33369062 92.08079669 113.51559235 95.46235207 114.69932556 98.84359741 C119.48755794 112.65645971 123.35858094 126.47740325 126.53605652 140.74676514 C127.06916693 143.08766627 127.64473425 145.41179209 128.24327087 147.73666382 C130.52909924 157.05561444 130.33215505 166.64107019 130.370224 176.18685913 C130.390849 177.47205444 130.411474 178.75724976 130.432724 180.08139038 C130.51118056 199.4013175 124.02492481 216.47684795 110.557724 230.37435913 C95.99677764 244.82417054 76.42593178 251.75554168 57.120224 257.31185913 C56.46505798 257.50908569 55.80989197 257.70631226 55.13487244 257.90951538 C11.46311677 270.9813334 -39.24131173 264.85032527 -79.52430725 244.19467163 C-87.47277771 239.73464514 -94.29855245 234.23107818 -100.71180725 227.78060913 C-103.59055367 225.83032327 -105.46738601 225.98383232 -108.879776 226.31185913 C-109.869776 226.64185913 -110.859776 226.97185913 -111.879776 227.31185913 C-113.03242153 225.56633849 -114.17664927 223.81525717 -115.317276 222.06185913 C-115.95536194 221.08732788 -116.59344788 220.11279663 -117.25086975 219.10873413 C-118.6373896 216.72804298 -119.426357 214.99405606 -119.879776 212.31185913 C-119.219776 211.98185913 -118.559776 211.65185913 -117.879776 211.31185913 C-115.50696063 209.35850924 -115.50696063 209.35850924 -115.504776 205.74935913 C-115.64678709 202.70160913 -116.17486626 199.91665751 -116.8875885 196.95639038 C-118.27258651 190.18037177 -118.17129041 183.45325119 -118.129776 176.56185913 C-118.13751038 175.29342163 -118.14524475 174.02498413 -118.1532135 172.71810913 C-118.15063538 171.45482788 -118.14805725 170.19154663 -118.145401 168.88998413 C-118.14314514 167.77011108 -118.14088928 166.65023804 -118.13856506 165.49642944 C-117.01992067 138.27446993 -106.95706973 111.45116241 -98.08692932 85.96414185 C-95.79046122 79.35574074 -93.52131868 72.73782972 -91.25086975 66.12045288 C-91.00967911 65.41775898 -90.76848846 64.71506508 -90.51998901 63.99107742 C-85.04435505 48.0190857 -79.8081697 32.24781201 -77.004776 15.56185913 C-76.79336975 14.36432007 -76.5819635 13.16678101 -76.364151 11.93295288 C-75.85867431 9.06092621 -75.36382411 6.1875597 -74.879776 3.31185913 C-49.95902117 0.42101056 -25.05686692 -0.00151881 0 0 Z " fill="#E5E5E5" transform="translate(249.87977600097656,232.68814086914063)"/>
<path d="M0 0 C1.16939117 0.00304138 2.33878235 0.00608276 3.54360962 0.00921631 C32.28303611 0.11920076 59.53540788 3.25237461 87.4375 10.4375 C88.44538574 10.69370117 89.45327148 10.94990234 90.49169922 11.21386719 C109.53306249 16.14673458 131.00149055 22.30892621 147.4375 33.4375 C148.98336876 36.52923752 148.73109521 39.03179552 148.4375 42.4375 C146.9375 44.875 146.9375 44.875 144.4375 46.4375 C138.45433299 46.92720307 134.75897272 46.01533855 129.5 43.125 C105.3130775 30.8526789 76.8439168 23.39196452 50.06201172 19.79345703 C48.24705503 19.54729825 46.43362487 19.28971259 44.62158203 19.02294922 C-27.85561353 8.42323406 -109.74665282 22.71737893 -169.5625 66.4375 C-177.38429296 72.28110929 -184.58749889 78.6165858 -191.5625 85.4375 C-192.22121094 86.0459375 -192.87992188 86.654375 -193.55859375 87.28125 C-210.93143339 103.65103886 -223.66795287 127.2012815 -228.5625 150.4375 C-228.78679687 151.45585937 -229.01109375 152.47421875 -229.2421875 153.5234375 C-232.04402728 168.45378923 -232.12892997 184.19285109 -226.5625 198.4375 C-226.129375 199.59958984 -226.129375 199.59958984 -225.6875 200.78515625 C-222.16446069 208.94791252 -215.42449316 214.7315938 -207.4375 218.34765625 C-173.21251927 231.32152802 -131.69460509 225.84289977 -96.08836365 222.34458923 C-83.40651036 221.10038019 -70.74842666 220.03455378 -58.0234375 219.359375 C-56.81173512 219.29469402 -56.81173512 219.29469402 -55.57555389 219.22870636 C-37.98714805 218.31178183 -20.42023426 218.12819597 -2.81103516 218.17675781 C1.36497509 218.18818859 5.54073119 218.18132911 9.71673298 218.1698761 C37.1827614 218.10615648 64.40371398 219.31850147 91.75 221.9375 C157.4624984 231.1715755 157.4624984 231.1715755 217.4375 212.4375 C226.23549809 204.75566584 230.74499603 193.67693577 231.61450195 182.07592773 C232.50648951 146.3431193 220.6541672 115.2941568 196.10375977 89.1953125 C187.44448829 80.19724171 178.42384366 72.10391602 168.19799805 64.91357422 C163.52979597 61.62209194 163.52979597 61.62209194 162.4375 59.4375 C162.453125 57.34375 162.453125 57.34375 162.6875 54.9375 C162.78804688 53.74640625 162.78804688 53.74640625 162.890625 52.53125 C163.4375 50.4375 163.4375 50.4375 166.4375 48.4375 C170.90748104 47.78801557 173.60825144 48.23690655 177.26953125 50.74609375 C178.61079179 51.77042916 179.9371697 52.81447208 181.25 53.875 C181.95503662 54.42631592 182.66007324 54.97763184 183.38647461 55.5456543 C188.95941006 59.94534018 194.32102947 64.51194255 199.4375 69.4375 C199.99791992 69.96682129 200.55833984 70.49614258 201.13574219 71.04150391 C229.10084576 97.54288954 246.54368965 131.09980474 248.62109375 169.86328125 C249.03066194 189.594831 244.83622813 208.38650014 231.0703125 223.015625 C211.13916333 241.34991652 182.58544042 241.98643428 157.0625 241.75 C154.95076564 241.74065342 152.83903059 241.73145902 150.72729492 241.72241211 C111.47478864 241.46279137 111.47478864 241.46279137 97.4375 238.4375 C98.1019414 241.43800914 98.76850339 244.43800552 99.4375 247.4375 C99.60942871 248.2099707 99.78135742 248.98244141 99.95849609 249.77832031 C104.5516796 270.22206878 110.84797222 289.87842696 117.81680298 309.61608887 C152.22441266 407.1136317 152.22441266 407.1136317 132.4375 452.4375 C119.59874478 478.33959508 94.38404119 493.28459437 67.92626953 502.29248047 C54.37205639 506.70143191 40.53008539 509.40912612 26.4375 511.4375 C25.74060059 511.5413501 25.04370117 511.6452002 24.32568359 511.75219727 C-17.56868326 517.2474324 -69.83089467 509.62303864 -104.44384766 484.04736328 C-109.98974108 479.71768735 -115.51771368 475.25365644 -119.5625 469.4375 C-120.28793742 463.42673284 -120.28793742 463.42673284 -118.1875 460.5625 C-114.8752451 458.26940046 -112.58465098 458.04874191 -108.5625 458.4375 C-106.31640625 460.0546875 -106.31640625 460.0546875 -104.125 462.3125 C-89.48717545 476.2282794 -71.90247482 483.74897712 -52.61669922 488.88330078 C-50.68614775 489.40414127 -48.76636546 489.96444168 -46.84765625 490.52734375 C-16.18212404 499.05448545 18.92401372 499.17571034 49.46972656 490.02636719 C51.62685652 489.380834 53.79351151 488.77407848 55.9609375 488.1640625 C78.75771398 481.55002393 103.10719674 470.79793479 115.12890625 449.0703125 C121.74868275 435.75171739 123.77687095 424.52307824 123.6875 409.6875 C123.69523437 408.4190625 123.70296875 407.150625 123.7109375 405.84375 C123.64683041 374.43127475 112.18512546 344.56379115 102.34472656 315.15020752 C101.45719853 312.49640079 100.57189043 309.84186555 99.6875 307.18701172 C99.40659515 306.34376846 99.12569031 305.50052521 98.83627319 304.63172913 C98.56030304 303.80321945 98.28433289 302.97470978 98 302.12109375 C96.45328301 297.47776094 94.90519107 292.8349424 93.34521484 288.19604492 C85.29483601 264.23605115 85.29483601 264.23605115 83.1875 251.9375 C83.01476562 250.98875 82.84203125 250.04 82.6640625 249.0625 C81.90525509 244.77463591 81.40230043 240.79749321 81.4375 236.4375 C80.60044525 236.44892029 79.7633905 236.46034058 78.90097046 236.47210693 C70.04005821 236.53970244 61.31507256 236.09013105 52.4765625 235.453125 C35.22956371 234.29265445 18.02137388 234.12814204 0.74072266 234.17675781 C-3.3923236 234.18824647 -7.52511467 234.18131848 -11.65815258 234.16985512 C-27.82354656 234.13207523 -43.83243833 234.24119881 -59.92358398 235.99658203 C-66.79185567 236.72718103 -73.66526048 236.61768913 -80.5625 236.4375 C-80.60117187 237.28054687 -80.60117187 237.28054687 -80.640625 238.140625 C-81.06934299 244.49344607 -82.05265207 250.69226976 -83.25 256.9375 C-83.38631836 257.68805664 -83.52263672 258.43861328 -83.66308594 259.21191406 C-86.38782001 272.91423655 -91.44025631 286.16725702 -95.98695183 299.34365082 C-96.68755757 301.37437408 -97.38685772 303.40554282 -98.08583069 305.43682861 C-98.56371419 306.82507899 -99.04161452 308.21332357 -99.51953125 309.6015625 C-99.75910773 310.29769024 -99.99868422 310.99381798 -100.24552059 311.7110405 C-101.45307537 315.21673563 -102.66578273 318.72049583 -103.88916016 322.22070312 C-109.32732416 337.79594083 -114.31209747 353.3555321 -118.1953125 369.3984375 C-118.36365475 370.08874683 -118.53199699 370.77905617 -118.70544052 371.49028397 C-121.80882386 384.33407066 -122.74347338 396.2537225 -122.75 409.4375 C-122.76224609 410.73945313 -122.77449219 412.04140625 -122.78710938 413.3828125 C-122.79698774 419.90253575 -122.56720834 425.99820322 -121.03613281 432.35009766 C-120.22399138 435.92938079 -120.11994873 438.77064663 -120.5625 442.4375 C-123.12828909 445.4560754 -124.7434721 446.2870663 -128.625 447 C-131.5625 446.4375 -131.5625 446.4375 -133.75 444.6875 C-147.85812625 419.39017018 -139.00447858 380.3024974 -131.61865234 354.00146484 C-127.91022288 341.48744419 -123.58940066 329.15780004 -119.371521 316.80877686 C-105.97786406 280.35656247 -105.97786406 280.35656247 -97.8515625 242.59765625 C-97.5625 240.4375 -97.5625 240.4375 -96.5625 238.4375 C-97.64301636 238.6684436 -97.64301636 238.6684436 -98.74536133 238.90405273 C-116.3015263 242.22845004 -135.08631206 241.66325519 -152.88052368 241.73605347 C-155.05745021 241.74523423 -157.23436266 241.75920656 -159.41122437 241.77835083 C-185.8691002 241.98392853 -212.0684402 239.79126756 -232.3046875 220.85546875 C-245.0398505 207.21694644 -247.9372763 187.96552658 -247.70703125 170.02734375 C-245.98999773 127.3799437 -224.55060012 93.39879427 -194.18994141 64.82373047 C-158.79715777 32.68016354 -111.80234793 14.88882692 -65.5625 5.6875 C-64.64098145 5.5009082 -63.71946289 5.31431641 -62.77001953 5.12207031 C-41.9792508 1.21569211 -21.12113941 -0.11765387 0 0 Z " fill="#010101" transform="translate(255.5625,-0.43750000000000006)"/>
<path d="M0 0 C-0.84820312 0.55945313 -1.69640625 1.11890625 -2.5703125 1.6953125 C-37.77668498 25.51079187 -56.54769397 65.62881405 -64.93359375 106.30859375 C-71.024353 137.87276971 -73.78654388 174.15146326 -60 204 C-68.51339388 205.79055897 -76.94833535 206.60509618 -85.625 207.125 C-86.30897858 207.16636078 -86.99295715 207.20772156 -87.69766235 207.25033569 C-161.093905 211.59175192 -161.093905 211.59175192 -179.26953125 195.703125 C-179.84058594 195.14109375 -180.41164063 194.5790625 -181 194 C-182.02673828 193.06414062 -182.02673828 193.06414062 -183.07421875 192.109375 C-192.68271478 182.51863959 -195.20848018 169.41140877 -195.25 156.3125 C-195.23491352 121.54722253 -180.17095005 91.97772614 -156.32080078 67.37207031 C-155.21391497 66.22221851 -154.13296185 65.04747922 -153.05859375 63.8671875 C-125.94419186 34.87236848 -41.71340815 -13.90446938 0 0 Z " fill="#8B521E" transform="translate(219,18)"/>
<path d="M0 0 C2.45573705 -0.00063073 4.91144127 -0.00511667 7.36717224 -0.01040649 C29.36370837 -0.04675809 51.17948655 0.71790524 73.120224 2.31185913 C80.050224 2.80685913 80.050224 2.80685913 87.120224 3.31185913 C88.770224 12.88185913 90.420224 22.45185913 92.120224 32.31185913 C89.27268494 32.09529663 86.42514587 31.87873413 83.49131775 31.65560913 C62.05049355 30.0856832 40.68540226 29.00276573 19.182724 28.99935913 C18.17603668 28.99613647 17.16934937 28.99291382 16.13215637 28.98959351 C13.26468849 28.98394975 10.39779463 28.99406442 7.53038025 29.01107788 C6.27386154 29.00989204 6.27386154 29.00989204 4.99195862 29.00868225 C-7.34160745 29.15554971 -19.11159225 33.81881223 -28.1375885 42.33920288 C-31.3508968 45.97759008 -33.75836222 49.95829844 -35.879776 54.31185913 C-36.3438385 55.20868408 -36.3438385 55.20868408 -36.817276 56.12362671 C-41.05651544 65.28996295 -41.92706661 75.48125919 -43.379776 85.37435913 C-43.68353765 87.38671364 -43.98774112 89.39900151 -44.29237366 91.41122437 C-46.83001681 108.33351172 -49.09770087 125.29228222 -50.879776 142.31185913 C-50.982901 143.26052856 -51.086026 144.209198 -51.192276 145.18661499 C-52.11600998 154.68870357 -52.12326009 164.21083584 -52.129776 173.74935913 C-52.13045074 174.63825836 -52.13112549 175.52715759 -52.13182068 176.44299316 C-52.11597585 189.58783482 -51.84092488 202.44426827 -48.879776 215.31185913 C-48.71348694 216.05290894 -48.54719788 216.79395874 -48.37586975 217.5574646 C-44.59757528 233.68168611 -37.66274896 246.6753885 -25.879776 258.31185913 C-24.87925402 259.31133688 -23.87914907 260.31123259 -22.879776 261.31185913 C-30.46145864 260.85458032 -37.45673794 259.64395409 -44.754776 257.56185913 C-45.71512756 257.2923645 -46.67547913 257.02286987 -47.66493225 256.74520874 C-67.64295017 251.03118556 -85.89230798 242.68610162 -100.71180725 227.78060913 C-103.59055367 225.83032327 -105.46738601 225.98383232 -108.879776 226.31185913 C-109.869776 226.64185913 -110.859776 226.97185913 -111.879776 227.31185913 C-113.03242153 225.56633849 -114.17664927 223.81525717 -115.317276 222.06185913 C-115.95536194 221.08732788 -116.59344788 220.11279663 -117.25086975 219.10873413 C-118.6373896 216.72804298 -119.426357 214.99405606 -119.879776 212.31185913 C-119.219776 211.98185913 -118.559776 211.65185913 -117.879776 211.31185913 C-115.50696063 209.35850924 -115.50696063 209.35850924 -115.504776 205.74935913 C-115.64678709 202.70160913 -116.17486626 199.91665751 -116.8875885 196.95639038 C-118.27258651 190.18037177 -118.17129041 183.45325119 -118.129776 176.56185913 C-118.13751038 175.29342163 -118.14524475 174.02498413 -118.1532135 172.71810913 C-118.15063538 171.45482788 -118.14805725 170.19154663 -118.145401 168.88998413 C-118.14314514 167.77011108 -118.14088928 166.65023804 -118.13856506 165.49642944 C-117.01992067 138.27446993 -106.95706973 111.45116241 -98.08692932 85.96414185 C-95.79046122 79.35574074 -93.52131868 72.73782972 -91.25086975 66.12045288 C-91.00967911 65.41775898 -90.76848846 64.71506508 -90.51998901 63.99107742 C-85.04435505 48.0190857 -79.8081697 32.24781201 -77.004776 15.56185913 C-76.79336975 14.36432007 -76.5819635 13.16678101 -76.364151 11.93295288 C-75.85867431 9.06092621 -75.36382411 6.1875597 -74.879776 3.31185913 C-49.95902117 0.42101056 -25.05686692 -0.00151881 0 0 Z " fill="#CBCBCB" transform="translate(249.87977600097656,232.68814086914063)"/>
<path d="M0 0 C2.5881216 2.25417042 2.94242643 3.60520979 3.4375 7 C3 10 3 10 1.4375 12.375 C-1.95870843 14.63913895 -4.00099302 14.64269755 -8 14 C-10.5 11.9375 -10.5 11.9375 -12 9 C-12 5.19715329 -11.7968187 2.98069994 -9.375 0 C-5.88418213 -1.46981805 -3.60851044 -0.98413921 0 0 Z " fill="#080808" transform="translate(358,415)"/>
<path d="M0 0 C2.5 1.5 2.5 1.5 4 4 C4.18239848 6.97721386 3.72078527 9.02075423 3 12 C-0.7205836 14.48038907 -2.59796571 14.46337203 -7 14 C-9.4375 12.375 -9.4375 12.375 -11 10 C-11.60605429 6.36367425 -11.47161336 4.71685231 -9.4375 1.625 C-6.06489221 -0.62340519 -3.97487617 -0.56783945 0 0 Z " fill="#060606" transform="translate(334,406)"/>
<path d="M0 0 C2.4375 1 2.4375 1 4 3 C4.45314453 6.17201171 4.70191508 7.99265696 4 11 C1.5816209 13.76386182 0.03342666 14.79835577 -3.5625 15.5 C-6.96311101 14.80243877 -8.05445623 13.88228706 -10 11 C-10.63857688 7.47363655 -10.65841319 4.23936601 -8.9375 1 C-5.85873258 -0.58904125 -3.39844421 -0.35773097 0 0 Z " fill="#060606" transform="translate(337,433)"/>
</svg>
